<mxfile host="" modified="2021-01-23T14:48:05.049Z" agent="5.0 (Windows NT 6.2; Win64; x64) AppleWebKit/537.36 (KHTML, like Gecko) Chrome/84.0.4147.105 Safari/537.36" etag="yQSUdde_cSjj9eDFEF_Q" version="13.7.9" type="embed"><diagram id="1e-TCANHlpKQKMUJStjR" name="Page-1"><mxGraphModel dx="951" dy="772" grid="1" gridSize="10" guides="1" tooltips="1" connect="1" arrows="1" fold="1" page="1" pageScale="1" pageWidth="850" pageHeight="1100" math="0" shadow="0"><root><mxCell id="0"/><mxCell id="1" parent="0"/><mxCell id="6" value="" style="rounded=0;whiteSpace=wrap;html=1;fillColor=none;dashed=1;" vertex="1" parent="1"><mxGeometry x="270" y="475" width="140" height="90" as="geometry"/></mxCell><mxCell id="4" value="" style="shape=partialRectangle;whiteSpace=wrap;html=1;left=0;right=0;fillColor=none;" vertex="1" parent="1"><mxGeometry x="280" y="490" width="120" height="60" as="geometry"/></mxCell><mxCell id="3" value="E" style="rounded=0;whiteSpace=wrap;html=1;" parent="1" vertex="1"><mxGeometry x="300" y="500" width="30" height="40" as="geometry"/></mxCell><mxCell id="5" value="E" style="rounded=0;whiteSpace=wrap;html=1;" vertex="1" parent="1"><mxGeometry x="350" y="500" width="30" height="40" as="geometry"/></mxCell><mxCell id="7" value="Broker" style="text;html=1;align=center;verticalAlign=middle;resizable=0;points=[];autosize=1;fontStyle=1" vertex="1" parent="1"><mxGeometry x="260" y="450" width="50" height="20" as="geometry"/></mxCell><mxCell id="9" value="" style="edgeStyle=orthogonalEdgeStyle;rounded=0;orthogonalLoop=1;jettySize=auto;html=1;entryX=0.5;entryY=0;entryDx=0;entryDy=0;endArrow=open;endFill=0;dashed=1;" edge="1" parent="1" source="8" target="6"><mxGeometry relative="1" as="geometry"/></mxCell><mxCell id="8" value="Scheduler" style="rounded=0;whiteSpace=wrap;html=1;" vertex="1" parent="1"><mxGeometry x="280" y="310" width="120" height="60" as="geometry"/></mxCell><mxCell id="10" value="E" style="rounded=0;whiteSpace=wrap;html=1;" vertex="1" parent="1"><mxGeometry x="300" y="400" width="30" height="40" as="geometry"/></mxCell><mxCell id="11" value="In Order" style="text;html=1;align=center;verticalAlign=middle;resizable=0;points=[];autosize=1;" vertex="1" parent="1"><mxGeometry x="340" y="410" width="60" height="20" as="geometry"/></mxCell></root></mxGraphModel></diagram></mxfile>